<svg id="svg-source" width="40px" height="40px" xmlns="http://www.w3.org/2000/svg" xmlns:xlink="http://www.w3.org/1999/xlink" version="1.1">
  <defs id="ui-icons">
    <svg id="li-logo-header-icon" viewBox="0 0 40 40" width="40px" height="40px" x="0" y="0" preserveAspectRatio="xMinYMin meet">
      <g class="app-icon" style="fill: currentColor">
        <g id="in-bug-color-40dp-1x">
          <rect x="0" style="fill:none;" width="40" height="40"></rect>
          <g>
            <path style="fill: #FFFFFF;"
                  d="M34.537,3H5.563C4.178,3,3,4.096,3,5.446v29.106C3,35.904,4.178,37,5.563,37h28.974C35.925,37,37,35.904,37,34.553V5.446C37,4.096,35.925,3,34.537,3z"></path>
            <path style="fill: #004b7c;" d="M8,16h5v16H8V16z"></path>
            <path style="fill: #004b7c;"
                  d="M16,16h4.75v2.391c0.637-1.277,2.492-2.641,4.945-2.641c4.702,0,6.305,2.125,6.305,7.172V32h-5v-8.016c0-2.656-0.519-4.109-2.458-4.109c-2.621,0-3.542,1.992-3.542,4.109V32h-5V16z"></path>
            <circle style="fill: #004b7c;" cx="10.5" cy="10.5" r="3.05"></circle>
          </g>
        </g>
      </g>
    </svg>
  </defs>

  <style>
    #svg-source use[data-size="large"]{
    fill-opacity: 1;
    fill: transparent;
    }

    #svg-source use{
    fill-opacity: 0;
    fill: currentColor;
    }
  </style>

  <use x="0" y="0" data-size="large" xlink:href="#li-logo-header-icon" style="color: rgba(0,0,0,.7);" width="40px" height="40px"/>

</svg>