<?xml version="1.0" encoding="UTF-8" standalone="no"?>
<svg width="2048px" height="2048px" viewBox="0 0 2048 2048" version="1.1" xmlns="http://www.w3.org/2000/svg" xmlns:xlink="http://www.w3.org/1999/xlink">
    <!-- Generator: Sketch 40.3 (33839) - http://www.bohemiancoding.com/sketch -->
    <title>-Author</title>
    <desc>Created with Sketch.</desc>
    <defs></defs>
    <g id="Search-Results-Web-Design" stroke="none" stroke-width="1" fill="none" fill-rule="evenodd">
        <g id="-Author" fill="#000000">
            <g id="Group">
                <path d="M192,2041.6 L1856,2041.6 C1964.8,2041.6 2048,1958.4 2048,1849.6 L0,1849.6 C0,1958.4 89.6,2041.6 192,2041.6 Z M768,256 C768,114.56 882.56,0 1024,0 C1165.44,0 1280,114.56 1280,256 C1280,397.44 1165.44,512 1024,512 C882.56,512 768,397.44 768,256 Z M1548.8,825.6 C1523.2,742.4 1484.8,684.8 1408,684.8 C1408,684.8 1139.2,652.8 1030.4,646.4 C921.6,646.4 646.4,684.8 646.4,684.8 C569.6,684.8 531.2,748.8 505.6,825.6 L332.8,1612.8 C332.8,1689.6 396.8,1753.6 473.6,1753.6 L582.4,1753.6 L582.4,1203.2 L1478.4,1203.2 L1478.4,1753.6 L1587.2,1753.6 C1664,1753.6 1728,1689.6 1728,1612.8 L1548.8,825.6 Z" id="Combined-Shape"></path>
            </g>
        </g>
    </g>
</svg>